<svg xmlns="http://www.w3.org/2000/svg" viewBox="0 0 252 253">
  <path fill="none" stroke="#fff" stroke-width="5" d="M84 25.14c-4.91.98-6.24.81-11 .86-13.11.16-27.95 4.8-36.68 15.01C28.73 49.9 25.14 62.44 25 74l-1 19v68l1 18c.06 12.36 3.64 25.71 12.18 34.96C45.96 223.47 60.33 227.85 73 228l19 1h68l18-1c12.02-.06 24.71-3.39 33.99-11.32 10.21-8.73 14.85-23.57 15.01-36.68l1-19V93l-1-16c-.03-6.89-.54-12.31-2.43-19-6.02-21.34-24.23-31.75-45.57-32l-19-.86h-29-47zm105 20.25c3.9-.52 7.48-.65 11 1.46a15.47 15.47 0 01-4 28.62c-10.2 2.35-20.25-7.15-18.66-17.47 1.01-6.5 5.65-10.67 11.66-12.61zM124 62.3c4.24-.22 5.1.3 9 .62 44.62 3.57 70.19 52.42 51.68 92.08-8.37 17.93-25.37 31.23-44.68 35.33l-12 1.37c-4.77.45-16.27-1.26-21-2.72-37.68-11.67-55.77-53.15-40.13-88.98C74.9 81.62 92.48 67.81 112 63.67l12-1.37zm-5 24.16c-8.72 1.89-16.5 5.02-22.82 11.63-26.81 28.06-3.15 76.52 36.82 69.45 8.33-1.48 16.92-5.46 22.82-11.63 19.75-20.67 12.68-57.45-14.82-67.36-7.18-2.59-14.48-3.13-22-2.09z"/>
</svg>
