<?xml version="1.0" encoding="UTF-8" standalone="no"?>
<!DOCTYPE svg PUBLIC "-//W3C//DTD SVG 20010904//EN"
              "http://www.w3.org/TR/2001/REC-SVG-20010904/DTD/svg10.dtd">

<svg xmlns="http://www.w3.org/2000/svg"
     width="0.84in" height="0.843333in"
     viewBox="0 0 252 253">
  <path id="Seleção #1"
        fill="none" stroke="white" stroke-width="5"
        d="M 71.00,3.14
           C 58.21,5.25 51.25,5.30 39.00,11.26
             33.24,14.06 29.90,16.26 25.00,20.44
             -0.17,41.90 2.00,75.24 2.00,105.00
             2.00,105.00 2.00,142.00 2.00,142.00
             2.00,172.11 -1.34,204.72 20.29,228.99
             34.38,244.80 57.45,250.90 78.00,251.00
             78.00,251.00 173.00,251.00 173.00,251.00
             180.56,250.99 193.79,249.42 201.00,247.28
             207.49,245.36 214.32,242.61 220.00,238.90
             250.63,218.87 250.00,186.25 250.00,154.00
             250.00,154.00 250.00,114.00 250.00,114.00
             250.00,87.59 252.93,54.70 237.23,32.00
             217.82,3.95 188.67,3.00 158.00,3.14
             158.00,3.14 121.00,3.14 121.00,3.14
             121.00,3.14 71.00,3.14 71.00,3.14 Z
           M 85.00,24.14
           C 85.00,24.14 160.00,24.14 160.00,24.14
             160.00,24.14 179.00,25.00 179.00,25.00
             194.21,25.18 209.00,30.70 218.47,43.00
             224.63,50.99 227.88,64.00 228.00,74.00
             228.00,74.00 229.00,93.00 229.00,93.00
             229.00,93.00 229.00,161.00 229.00,161.00
             229.00,161.00 228.00,177.00 228.00,177.00
             227.95,186.90 226.42,197.16 221.68,206.00
             213.31,221.58 196.04,228.80 179.00,229.00
             179.00,229.00 160.00,230.00 160.00,230.00
             160.00,230.00 92.00,230.00 92.00,230.00
             92.00,230.00 77.00,229.00 77.00,229.00
             58.83,228.79 41.71,224.60 31.47,208.00
             26.81,200.46 24.11,188.83 24.00,180.00
             24.00,180.00 23.00,161.00 23.00,161.00
             23.00,161.00 23.00,91.00 23.00,91.00
             23.00,91.00 24.00,77.00 24.00,77.00
             24.06,65.37 26.25,52.45 33.53,43.00
             43.36,30.25 58.32,25.08 74.00,25.00
             79.48,24.97 79.47,25.08 85.00,24.14 Z
           M 188.00,46.65
           C 169.50,54.49 180.24,78.73 196.00,74.36
             208.67,70.85 210.59,55.67 200.96,48.65
             196.86,45.67 192.73,45.67 188.00,46.65 Z
           M 123.00,63.43
           C 123.00,63.43 113.00,64.51 113.00,64.51
             101.79,66.81 89.38,73.35 81.17,81.29
             56.17,105.44 56.17,148.56 81.17,172.71
             96.68,187.70 116.14,192.42 137.00,189.82
             144.05,188.94 152.92,185.17 159.00,181.55
             206.12,153.44 197.09,81.07 144.00,65.86
             138.38,64.25 128.75,62.85 123.00,63.43 Z
           M 120.00,85.29
           C 135.53,83.82 149.65,88.27 159.47,101.00
             178.97,126.27 164.11,164.52 132.00,168.71
             117.41,170.62 102.79,165.42 93.33,154.00
             78.20,135.75 81.62,106.67 101.00,92.79
             107.07,88.44 112.74,86.49 120.00,85.29 Z" />
  <path id="Seleção"
        fill="none" stroke="black" stroke-width="1"
        d="M 84.00,25.14
           C 79.09,26.12 77.76,25.95 73.00,26.00
             59.89,26.16 45.05,30.80 36.32,41.01
             28.73,49.90 25.14,62.44 25.00,74.00
             25.00,74.00 24.00,93.00 24.00,93.00
             24.00,93.00 24.00,161.00 24.00,161.00
             24.00,161.00 25.00,179.00 25.00,179.00
             25.06,191.36 28.64,204.71 37.18,213.96
             45.96,223.47 60.33,227.85 73.00,228.00
             73.00,228.00 92.00,229.00 92.00,229.00
             92.00,229.00 160.00,229.00 160.00,229.00
             160.00,229.00 178.00,228.00 178.00,228.00
             190.02,227.94 202.71,224.61 211.99,216.68
             222.20,207.95 226.84,193.11 227.00,180.00
             227.00,180.00 228.00,161.00 228.00,161.00
             228.00,161.00 228.00,93.00 228.00,93.00
             228.00,93.00 227.00,77.00 227.00,77.00
             226.97,70.11 226.46,64.69 224.57,58.00
             218.55,36.66 200.34,26.25 179.00,26.00
             179.00,26.00 160.00,25.14 160.00,25.14
             160.00,25.14 131.00,25.14 131.00,25.14
             131.00,25.14 84.00,25.14 84.00,25.14 Z
           M 189.00,45.39
           C 192.90,44.87 196.48,44.74 200.00,46.85
             213.06,54.68 209.00,72.47 196.00,75.47
             185.80,77.82 175.75,68.32 177.34,58.00
             178.35,51.50 182.99,47.33 189.00,45.39 Z
           M 124.00,62.30
           C 128.24,62.08 129.10,62.60 133.00,62.92
             177.62,66.49 203.19,115.34 184.68,155.00
             176.31,172.93 159.31,186.23 140.00,190.33
             140.00,190.33 128.00,191.70 128.00,191.70
             123.23,192.15 111.73,190.44 107.00,188.98
             69.32,177.31 51.23,135.83 66.87,100.00
             74.90,81.62 92.48,67.81 112.00,63.67
             112.00,63.67 124.00,62.30 124.00,62.30 Z
           M 119.00,86.46
           C 110.28,88.35 102.50,91.48 96.18,98.09
             69.37,126.15 93.03,174.61 133.00,167.54
             141.33,166.06 149.92,162.08 155.82,155.91
             175.57,135.24 168.50,98.46 141.00,88.55
             133.82,85.96 126.52,85.42 119.00,86.46 Z" />
</svg>
