<svg version="1.1" id="Layer_1" xmlns="http://www.w3.org/2000/svg" x="0" y="0" viewBox="-124 126 50 50" xml:space="preserve"><style>.st1{fill:#fff}</style><switch><g><path id="Rectangle" d="M-119 126h40c2.8 0 5 2.2 5 5v40c0 2.8-2.2 5-5 5h-40c-2.8 0-5-2.2-5-5v-40c0-2.8 2.2-5 5-5z" fill="#25344c"/><path class="st1" d="M-115 143.3h3.2l4.8 13.6h-3.1l-.9-2.8h-5l-.9 2.8h-3l4.9-13.6zm-.2 8.5h3.5l-1.7-5.4-1.8 5.4zM-103.2 152.7c.1.6.3 1.1.5 1.4.5.6 1.3.8 2.4.8.7 0 1.2-.1 1.7-.2.8-.3 1.2-.8 1.2-1.6 0-.4-.2-.8-.6-1-.4-.2-1-.5-1.9-.6l-1.5-.3c-1.4-.3-2.4-.7-3-1-.9-.6-1.4-1.6-1.4-2.9 0-1.2.4-2.2 1.3-3 .9-.8 2.2-1.2 4-1.2 1.5 0 2.7.4 3.7 1.1s1.6 1.9 1.6 3.3h-2.7c-.1-.8-.4-1.4-1.1-1.7-.5-.2-1-.3-1.7-.3-.8 0-1.4.1-1.8.4-.4.3-.7.7-.7 1.2s.2.8.7 1.1c.3.2.9.3 1.8.6l2.4.6c1 .2 1.8.6 2.4 1 .8.6 1.2 1.6 1.2 2.8 0 1.2-.5 2.3-1.4 3.1-1 .8-2.3 1.2-4.1 1.2-1.8 0-3.2-.4-4.2-1.2-1-.8-1.5-1.9-1.5-3.3h2.7zM-83.6 143.3h4.1v13.6h-2.7v-9.2-1.1-1.1l-2.6 11.4h-2.8l-2.6-11.4V156.9h-2.7v-13.6h4.1L-86 154l2.4-10.7z"/></g></switch></svg>