<svg xmlns="http://www.w3.org/2000/svg" viewBox="0 0 512 512">
  <path fill="#fff" stroke="#000" d="M244 26.42l-22 2.01c-16.75 2.43-33.12 6.8-49 12.62C116.45 61.79 70.26 106.51 45.31 161 30.19 194.02 24.58 227.94 25 264l.91 10c3.61 51.63 24.54 99.61 59.26 138 23.47 25.96 53.46 45.65 85.83 58.6 19.4 7.76 50.13 15.15 71 15.4h24c20.39-.03 50.91-6.76 70-14.06C400.39 447.29 450.6 395.1 472.92 330c8.91-25.98 12.4-53.64 12.08-81-.14-11.43-2.34-26.71-4.6-38C466.41 141.06 421.87 82.69 358 50.75c-22.47-11.23-38.1-16.98-63-21.16-13.51-2.27-37.69-4.79-51-3.17zm-7 26.86c20.83-1.93 56.21.49 76 7.05 28.37 9.42 54.67 22.67 77 42.84 30.12 27.2 54.39 65.01 63.76 104.83 2.82 11.95 3.5 23.85 4.33 36l.91 10-1 14v9c-.63 7.9-3.12 23.36-5.15 31-8.54 32-25.38 61.28-47.13 86-17.5 19.88-42.53 37.36-66.72 48.14-26.06 11.61-40.71 15.01-69 16.95l-20 .91-10-.91c-22.02-1.51-36.21-3.85-57-11.9-26.02-10.08-47.54-23.21-68-42.28C83.06 375.15 59.89 332.35 53.87 289L52 271c-.25-21.77-.45-43.72 4.89-65 5.2-20.67 17.66-47.3 29.46-65 7.17-10.74 14.56-18.91 23.65-28 25.81-25.81 54.77-43.52 90-53.57 12.29-3.51 24.47-4.35 37-6.15zm-78.57 91.74c-3.85 4.23-1.28 6.18-4.03 9.59-2.08 2.6-6.36 3.54-9.87 7.57-6.41 7.37-6.1 19.64.68 26.64 5.64 5.82 14.85 7.91 19.79 11.15 2.99 1.96 6.29 5.06 5.63 9.03-.37 2.2-1.88 4.04-3.69 5.26-7.42 5.03-19.45-1.66-21.9-1.56-3.19.13-5 3.47-5.45 6.3-1.41 8.81 11.36 7.47 14.81 11.43 2.84 3.26.4 8.51 6.64 9.42 10.03 1.46 5.99-7.06 10.27-11.38 2.63-2.65 7.06-3.34 10.89-8.51 7.74-10.47 3.92-23.93-6.2-31.17-6.25-4.47-20.96-7.77-20.46-14.8.58-8.12 11.17-7.21 16.46-5.45 2.05.68 4.62 2.12 6.79 1.23 2.37-.98 7.14-8 2.05-11.77-3.1-2.29-8.03-2.21-10.24-4.56-1.77-1.88-1.42-4.38-2.33-6.29-1.89-3.97-6.44-3.47-9.84-2.13zm33 90c-1.7 1.87-2.61 3.13-1.96 5.87 1.13 4.73 6.79 4.1 10.53 4.11h40c2.48 0 6.59.22 8.69-1.17 2.49-1.67 3.19-6.84.71-8.81-1.59-1.25-5.41-1.02-7.4-1.02h-34c-5.05 0-11.95-.8-16.57 1.02z"/>
</svg>
