<svg xmlns="http://www.w3.org/2000/svg" viewBox="0 0 500 500">
  <circle cx="220" cy="220" r="200" fill="#fff"/>
  <path fill="#379ad6" d="M249 .8h-13c-19.66.23-50.44 7.45-69 14.25C96.86 40.77 45.53 90.68 17.8 160 9.39 181.02 1.04 213.4.86 236v28c.17 19.65 7.2 49.39 13.83 68C39.87 402.68 90.54 454.34 160 482.2c20.79 8.34 52.63 16.53 75 16.8h28c28.9-.05 68.18-11.43 94-24.25 32.17-15.97 48.46-27.46 73.42-53.58L443.58 407c17.55-21.42 30.66-46.23 40.61-72 7.12-18.44 14.58-50.31 14.81-70 .23-20.06.44-38.13-3.26-58C483.7 142.33 447.61 84.74 394 46.43c-8.88-6.35-22.15-13.75-32-18.68C324.48 8.99 290.85.93 249 .8zM220 98v17h-18v11h18v15h-28c-6.06-.12-6.88-.94-7-7V98h35zm48 17h-11l7.85 8c1.14 1.34 1.93 2.32 2.55 4 .93 2.51 1.26 11.19-1 12.98-1.34 1.06-3.78.99-5.4 1.02h-28v-15h11l-11.09-10.09L233 98h28l7.18.09L268 115zm47.49-16.87v17h-11l7.85 8c1.14 1.35 2.93 2.78 3.55 4.46-1.31 3.18.24 11-1 12.98-1.34 1.05-4.78.53-6.4.56h-28v-15h12l-12.09-10.72.09-17.28h35zM358 158l-4.83 57-10.34 112-3 31-1.83 20-61 16.42-27 6.5-27-6.5L162 378l-1.83-19-3-32-10.34-112-3-32-1.83-25h216zm-175 46l3 24h68c-4.36 4.65-12.11 7.21-18 9.6l-25 10.26-15 6.13c-1.85.78-4.83 1.78-6.07 3.51-1.25 2.06-.31 5.19 0 7.5l1.07 17h93l-1.83 24c-.29 3 .26 8.38-1.19 10.78-1.94 3.19-10.34 5.03-13.98 6.08l-15 4.3c-4.35.46-16.19-3.4-21-4.74-2.2-.61-7.13-1.68-8.85-2.72-5.98-3.61-2.61-16.68-5.32-20.13-1.36-1.72-3.87-1.53-5.83-1.57h-18l2.58 29 1.44 9.44 6.98 3.14 17 5 29 8.05 18-4.63 36-10 3.17-37 2.92-34 .91-10h-62c4.54-4.53 11.18-5.86 17-8.2l31-13.38c3-1.3 14.53-5.81 15.98-7.92 1.29-1.87.95-5.26 1.11-7.5l.91-16H183z"/>
</svg>
