<svg xmlns="http://www.w3.org/2000/svg" viewBox="0 0 500 500">
  <circle cx="220" cy="220" r="200" fill="#fff"/>
  <path fill="#379ad6" d="M249 1h-13A250 250 0 0018 160c-9 21-17 53-17 76v28a248 248 0 00234 235h28a242 242 0 00167-78l14-14a262 262 0 0055-142c0-20 0-38-3-58A254 254 0 00362 28C324 9 291 1 249 1zm-29 97v17h-18v11h18v15h-28c-6 0-7-1-7-7V98h35zm48 17h-11l8 8 2 4c1 3 2 11-1 13l-5 1h-28v-15h11l-11-10V98h35v17zm47-17v17h-11l8 8 4 5-1 13h-35v-15h12l-12-11V98h35zm43 60l-5 57-10 112-3 31-2 20-61 16-27 7-27-7-61-16-2-19-3-32-10-112-3-32-2-25h216zm-175 46l3 24h68c-4 5-12 7-18 10l-25 10-15 6-6 3v8l1 17h93l-2 24-1 11c-2 3-10 5-14 6l-15 4c-4 1-16-3-21-5l-9-2c-6-4-2-17-5-20-2-2-4-2-6-2h-18l3 29 1 9 7 4 17 5 29 8 18-5 36-10 3-37 3-34 1-10h-62c5-5 11-6 17-8l31-14c3-1 15-5 16-8l1-7 1-16H183z"/>
</svg>
