<?xml version="1.0" encoding="UTF-8" standalone="no"?>
<!DOCTYPE svg PUBLIC "-//W3C//DTD SVG 20010904//EN"
              "http://www.w3.org/TR/2001/REC-SVG-20010904/DTD/svg10.dtd">

<svg xmlns="http://www.w3.org/2000/svg"
     width="1.66in" height="1.66in"
     viewBox="0 0 498 498">
     <circle cx="230" cy="230" r="200" fill="white" />
  <path id="Seleção"
        fill="#f16529" 
        d="M 232.00,10.21
           C 232.00,10.21 214.00,12.28 214.00,12.28
             214.00,12.28 181.00,19.72 181.00,19.72
             168.87,23.34 139.65,35.32 129.00,41.43
             129.00,41.43 118.00,48.78 118.00,48.78
             88.72,68.20 67.72,89.98 48.12,119.00
             45.18,123.34 42.85,126.20 40.32,131.00
             40.32,131.00 32.14,149.00 32.14,149.00
             32.14,149.00 24.37,167.00 24.37,167.00
             2.27,226.74 5.63,290.21 31.70,348.00
             31.70,348.00 41.43,369.00 41.43,369.00
             52.73,388.71 73.19,412.65 90.00,427.83
             97.89,434.96 119.91,451.52 129.00,456.56
             129.00,456.56 137.00,460.17 137.00,460.17
             137.00,460.17 159.00,470.22 159.00,470.22
             182.25,480.08 204.00,484.75 229.00,487.17
             229.00,487.17 238.00,488.00 238.00,488.00
             238.00,488.00 258.00,488.00 258.00,488.00
             258.00,488.00 270.00,487.09 270.00,487.09
             304.11,484.60 337.92,472.99 368.00,456.96
             388.03,446.29 415.53,422.20 430.27,405.00
             438.30,395.63 448.26,382.50 454.68,372.00
             454.68,372.00 466.30,348.00 466.30,348.00
             495.53,283.20 495.53,214.80 466.30,150.00
             466.30,150.00 455.98,128.00 455.98,128.00
             455.98,128.00 449.88,119.00 449.88,119.00
             429.32,88.57 409.43,68.67 379.00,48.12
             379.00,48.12 369.00,41.43 369.00,41.43
             369.00,41.43 339.00,27.78 339.00,27.78
             315.41,17.78 283.69,10.04 258.00,10.21
             258.00,10.21 232.00,10.21 232.00,10.21 Z
           M 160.31,98.60
           C 163.39,97.85 171.72,96.89 173.40,100.31
             174.76,103.08 172.57,109.63 178.05,110.63
             186.56,112.18 181.86,100.78 186.31,98.60
             188.95,97.30 197.94,97.33 199.40,100.31
             200.24,102.01 200.00,107.85 200.00,110.00
             200.00,110.00 200.00,131.00 200.00,131.00
             200.00,132.99 200.23,136.81 198.98,138.40
             197.16,140.70 186.84,140.70 185.02,138.40
             182.68,135.44 186.08,127.49 179.95,126.37
             171.97,124.91 175.13,135.68 172.98,138.40
             171.36,140.44 164.47,140.26 162.06,139.85
             157.90,139.15 158.07,136.56 158.00,133.00
             158.00,133.00 158.00,106.00 158.00,106.00
             158.02,102.43 157.49,100.98 160.31,98.60 Z
           M 211.31,98.60
           C 216.18,97.42 232.97,97.96 239.00,98.00
             240.82,98.01 243.92,97.85 245.40,99.02
             247.39,100.60 247.30,106.69 246.69,108.94
             245.08,114.83 239.65,111.54 236.60,114.60
             234.17,117.02 235.01,127.38 235.00,131.00
             234.98,139.04 234.78,140.34 226.00,139.98
             224.59,139.92 222.77,139.90 221.60,138.98
             219.90,137.63 220.04,134.95 220.00,133.00
             219.94,129.41 220.63,117.80 218.98,115.31
             215.71,110.41 209.41,116.54 209.02,107.00
             208.87,103.37 208.45,101.01 211.31,98.60 Z
           M 284.00,125.00
           C 284.00,125.00 276.00,132.41 276.00,132.41
             276.00,132.41 268.00,125.00 268.00,125.00
             268.00,127.77 268.50,136.48 266.98,138.40
             265.06,140.83 255.71,140.51 253.60,138.40
             251.81,136.61 252.02,133.35 252.00,131.00
             252.00,131.00 252.00,107.00 252.00,107.00
             252.00,105.01 251.77,101.19 253.02,99.60
             255.53,96.43 265.99,97.88 268.67,100.31
             271.73,103.09 273.40,108.91 276.86,107.80
             279.98,106.80 281.68,100.36 286.09,98.60
             288.53,97.62 297.23,97.39 298.98,99.60
             300.23,101.19 300.00,105.01 300.00,107.00
             300.00,107.00 300.00,131.00 300.00,131.00
             300.00,132.99 300.23,136.81 298.98,138.40
             297.36,140.44 290.47,140.26 288.06,139.85
             286.84,139.65 285.84,139.43 285.02,138.40
             283.50,136.48 284.00,127.77 284.00,125.00 Z
           M 307.31,98.60
           C 310.10,97.92 318.01,97.11 319.98,99.60
             321.61,101.66 320.98,113.76 321.16,117.00
             321.01,118.32 320.98,120.72 321.16,121.94
             323.32,129.28 334.47,123.91 338.40,127.02
             340.65,128.80 340.65,137.20 338.40,138.98
             336.81,140.23 332.99,140.00 331.00,140.00
             331.00,140.00 314.00,140.00 314.00,140.00
             312.01,140.00 308.19,140.23 306.60,138.98
             304.90,137.63 305.04,134.95 305.00,133.00
             305.00,133.00 305.00,106.00 305.00,106.00
             305.02,102.43 304.49,100.98 307.31,98.60 Z
           M 140.32,158.60
           C 145.10,157.44 157.41,158.00 163.00,158.00
             163.00,158.00 208.00,158.00 208.00,158.00
             208.00,158.00 351.00,158.00 351.00,158.00
             353.19,158.00 357.51,157.63 358.95,159.60
             360.04,161.13 359.09,167.77 358.95,170.00
             358.95,170.00 356.09,199.00 356.09,199.00
             356.09,199.00 352.17,242.00 352.17,242.00
             352.17,242.00 346.83,302.00 346.83,302.00
             346.83,302.00 344.02,331.00 344.02,331.00
             344.02,331.00 340.72,368.00 340.72,368.00
             340.25,371.91 340.78,378.21 336.85,379.97
             336.85,379.97 323.00,383.21 323.00,383.21
             323.00,383.21 299.00,388.65 299.00,388.65
             299.00,388.65 267.00,395.88 267.00,395.88
             267.00,395.88 249.00,399.66 249.00,399.66
             249.00,399.66 231.00,395.88 231.00,395.88
             231.00,395.88 200.00,388.88 200.00,388.88
             200.00,388.88 170.00,382.12 170.00,382.12
             167.28,381.49 160.61,380.58 159.02,378.44
             157.85,376.85 157.96,373.05 157.72,371.00
             157.72,371.00 155.72,349.00 155.72,349.00
             155.72,349.00 151.83,307.00 151.83,307.00
             151.83,307.00 147.91,265.00 147.91,265.00
             147.91,265.00 144.17,227.00 144.17,227.00
             144.17,227.00 140.72,187.00 140.72,187.00
             140.72,187.00 138.91,167.00 138.91,167.00
             138.64,163.23 137.23,161.29 140.32,158.60 Z
           M 193.00,300.00
           C 193.07,308.03 195.83,319.93 197.65,328.00
             198.23,330.55 199.22,336.52 200.82,338.30
             202.53,340.19 215.75,344.90 219.00,346.20
             219.00,346.20 239.00,354.40 239.00,354.40
             241.62,355.46 246.29,357.58 249.00,357.58
             252.54,357.58 271.26,349.30 276.00,347.40
             280.21,345.71 294.93,340.73 297.07,337.73
             299.01,334.99 300.01,321.21 300.58,317.00
             300.58,317.00 305.28,274.00 305.28,274.00
             305.28,274.00 307.52,252.15 307.52,252.15
             306.82,248.31 301.94,249.01 299.00,249.00
             299.00,249.00 223.00,249.00 223.00,249.00
             220.23,248.99 216.66,249.31 214.43,247.40
             211.72,245.09 207.85,232.47 210.61,229.60
             212.46,227.68 216.52,228.00 219.00,228.00
             219.00,228.00 305.00,228.00 305.00,228.00
             307.01,228.00 310.79,228.24 312.41,226.98
             314.58,225.29 315.70,214.14 316.25,211.00
             316.63,208.80 318.13,203.43 316.89,201.60
             315.54,199.62 311.14,200.00 309.00,200.00
             309.00,200.00 189.00,200.00 189.00,200.00
             186.49,200.01 181.83,199.46 180.69,202.31
             179.96,204.14 182.17,219.02 182.58,222.00
             182.58,222.00 186.95,256.00 186.95,256.00
             186.95,256.00 189.59,274.85 189.59,274.85
             191.26,278.57 195.59,277.99 199.00,278.00
             199.00,278.00 270.00,278.00 270.00,278.00
             272.39,278.00 276.60,277.67 278.31,279.60
             279.77,281.23 279.23,284.02 279.00,286.00
             279.00,286.00 277.15,301.00 277.15,301.00
             276.71,304.72 275.80,315.02 274.02,317.79
             271.38,321.90 260.69,325.02 256.00,326.81
             253.91,327.61 251.23,328.81 249.00,328.87
             246.20,328.94 243.55,327.46 241.00,326.45
             236.20,324.54 226.72,321.94 223.72,317.87
             220.78,313.87 220.47,303.26 217.44,301.02
             215.86,299.85 212.90,300.01 211.00,300.00
             211.00,300.00 193.00,300.00 193.00,300.00 Z" />
</svg>
