<svg xmlns="http://www.w3.org/2000/svg" viewBox="0 0 498 498">
  <circle cx="230" cy="230" r="200" fill="#fff"/>
  <path fill="#f16529" d="M232 10l-18 2-33 8c-12 3-41 15-52 21l-11 8c-29 19-50 41-70 70l-8 12-8 18-8 18C2 227 6 290 32 348l9 21a273 273 0 0088 88l8 3 22 10c23 10 45 15 70 17l9 1h20l12-1c34-2 68-14 98-30a262 262 0 0087-85l11-24c30-65 30-133 0-198l-10-22-6-9c-21-30-41-50-71-71l-10-7-30-13c-24-10-55-18-81-18h-26zm-72 89c3-1 12-2 13 1 2 3 0 10 5 11 9 1 4-10 8-12 3-2 12-2 13 1l1 10v21l-1 7c-2 3-12 3-14 0s1-11-5-12c-8-1-5 10-7 12s-9 2-11 2c-4-1-4-3-4-7v-27c0-4-1-5 2-7zm51 0c5-2 22-1 28-1l6 1c2 2 2 8 2 10-2 6-7 3-10 6-3 2-2 12-2 16 0 8 0 9-9 9l-4-1c-2-1-2-4-2-6 0-4 1-15-1-18-3-5-10 2-10-8 0-4-1-6 2-8zm73 26l-8 7-8-7c0 3 1 11-1 13-2 3-11 3-13 0-2-1-2-5-2-7v-24l1-7c3-4 13-2 16 0 3 3 4 9 8 8 3-1 5-8 9-9 3-1 11-2 13 1l1 7v24l-1 7c-2 2-9 2-11 2l-3-2-1-13zm23-26c3-1 11-2 13 1 2 2 1 14 1 17v5c2 7 13 2 17 5 3 2 3 10 0 12l-7 1h-17l-7-1c-2-1-2-4-2-6v-27c0-4-1-5 2-7zm-167 60c5-2 17-1 23-1h188c2 0 7 0 8 2v10l-3 29-4 43-5 60-3 29-3 37c-1 4 0 10-4 12l-14 3-24 6-32 7-18 4-18-4-31-7-30-7c-3-1-9-1-11-4l-1-7-2-22-4-42-4-42-4-38-3-40-2-20c0-4-2-6 1-8zm53 141c0 8 3 20 5 28 0 3 1 9 3 10 2 2 15 7 18 8l20 8c3 1 7 4 10 4 4 0 22-9 27-11 4-1 19-6 21-9s3-17 4-21l4-43 3-22c-1-4-6-3-9-3h-76c-3 0-6 0-9-2-2-2-6-15-3-17 1-2 6-2 8-2h86l7-1c3-2 4-13 4-16 1-2 2-8 1-9-1-2-6-2-8-2H189c-3 0-7-1-8 2-1 2 1 17 2 20l4 34 3 19c1 4 6 3 9 3h71c2 0 7 0 8 2 2 1 1 4 1 6l-2 15c0 4-1 14-3 17-3 4-13 7-18 9l-7 2c-3 0-5-2-8-3-5-1-14-4-17-8s-4-15-7-17l-6-1h-18z"/>
</svg>
