<svg viewBox="-42 0 512 512" xmlns="http://www.w3.org/2000/svg">
  <path d="M428 337c0 31-21 59-52 66l-7 2-92 23a16 16 0 11-8-31l100-25a37 37 0 00-9-72h-87a16 16 0 110-32h87l9 1c34 4 59 33 59 68zm0 0" fill="#aed0ff"/>
  <path d="M428 337c0 31-21 59-52 66l-7 2v-33a37 37 0 000-71v-32c34 4 59 33 59 68zm0 0" fill="#8cbcff"/>
  <path d="M340 251l-26 141c-6 57-52 100-106 100s-100-43-106-100L76 251c-2-7 3-13 10-13h244c7 0 12 6 10 13zm0 0" fill="#4895ff"/>
  <path d="M340 251l-26 141c-6 57-52 100-106 100V238h122c7 0 12 6 10 13zm0 0" fill="#2682ff"/>
  <path d="M415 456l-23 26c-17 19-45 30-75 30H99c-30 0-58-11-75-30L1 456c-3-3 0-8 4-8h406c4 0 7 5 4 8zm0 0" fill="#aed0ff"/>
  <path d="M415 456l-23 26c-17 19-45 30-75 30H208v-64h203c4 0 7 5 4 8zm0 0" fill="#8cbcff"/>
  <path d="M209 6a16 16 0 10-25 20c9 11 15 34-13 51a65 65 0 00-24 82l16 33a16 16 0 0028-13l-15-33c-7-15-2-33 12-42 42-27 43-71 21-98zm0 0" fill="#ff5e93"/>
  <path d="M284 73a16 16 0 10-25-19l-20 26a47 47 0 00-2 53c4 7 5 14-1 20l-11 13a16 16 0 0024 21l11-13c13-15 17-36 4-58-3-5-3-12 1-17zm0 0" fill="#ff3c7d"/>
</svg>
