<?xml version="1.0" encoding="UTF-8" standalone="no"?>
<!DOCTYPE svg PUBLIC "-//W3C//DTD SVG 20010904//EN"
              "http://www.w3.org/TR/2001/REC-SVG-20010904/DTD/svg10.dtd">

<svg xmlns="http://www.w3.org/2000/svg"
     width="3.125in" height="3.125in"
     viewBox="0 0 225 225" color="yellow">
    <g color="yellow">
        <rect width="225" height="225" fill="currentColor" />
        <path id="image"
                fill="black" stroke="black" stroke-width="1"
                d="M 151.00,176.00
                   C 151.00,176.00 135.00,185.00 135.00,185.00
                     138.04,199.49 156.61,206.84 170.00,207.00
                     185.29,207.18 201.01,203.66 205.96,187.00
                     207.13,183.04 207.04,180.06 207.00,176.00
                     206.78,157.24 193.17,150.67 178.00,144.15
                     171.98,141.56 159.67,136.44 161.47,128.00
                     162.03,125.41 163.82,123.42 166.04,122.09
                     173.48,117.62 179.77,123.15 184.00,129.00
                     187.76,127.80 200.65,121.67 199.53,116.96
                     199.16,115.43 197.43,113.34 196.38,112.17
                     190.24,105.33 181.90,102.82 173.00,102.18
                     156.42,101.00 141.21,111.69 141.00,129.00
                     140.95,133.63 140.92,137.57 142.56,142.00
                     147.24,154.66 160.62,159.67 172.00,164.58
                     177.86,167.11 189.25,172.86 185.65,181.00
                     184.23,184.19 181.22,186.55 178.00,187.74
                     166.44,192.00 157.80,184.28 151.00,176.00 Z
                   M 102.00,104.00
                   C 102.00,104.00 102.00,169.00 102.00,169.00
                     101.99,173.42 101.88,180.18 99.27,183.89
                     91.91,194.33 81.55,185.78 77.00,178.00
                     73.62,179.25 62.48,185.01 61.24,188.21
                     60.33,190.58 62.16,193.20 63.53,195.00
                     67.30,199.96 72.14,203.15 78.00,205.11
                     91.48,209.62 110.32,207.24 118.05,194.00
                     121.40,188.25 121.99,182.47 122.00,176.00
                     122.00,176.00 122.00,104.00 122.00,104.00
                     122.00,104.00 102.00,104.00 102.00,104.00 Z" />
  </g>
  
</svg>
