<svg xmlns="http://www.w3.org/2000/svg" viewBox="0 0 225 225" color="#ff0">
  <path fill="currentColor" d="M0 0h225v225H0z"/>
  <path stroke="#000" d="M151 176l-16 9c3 14 22 22 35 22 15 0 31-3 36-20l1-11c0-19-14-25-29-32-6-2-18-8-17-16 1-3 3-5 5-6 7-4 14 1 18 7 4-1 17-7 16-12l-4-5c-6-7-14-9-23-10-17-1-32 10-32 27 0 5 0 9 2 13 4 13 18 18 29 23 6 2 17 8 14 16-2 3-5 6-8 7-12 4-20-4-27-12zm-49-72v65c0 4 0 11-3 15-7 10-17 2-22-6-3 1-15 7-16 10s1 5 3 7c3 5 8 8 14 10 13 5 32 2 40-11 3-6 4-12 4-18v-72h-20z"/>
</svg>
