<svg xmlns="http://www.w3.org/2000/svg" viewBox="0 0 500 500">
  <circle cx="250" cy="250" r="150" fill="#fff"/>
  <path fill="#3765af" d="M240 58c-24 4-33 8-54 21l-9 5-24 21c-19 17-32 31-48 51l-22 28c-12 19-19 40-24 62l-2 14 2 21c3 16 14 39 24 53 10 15 24 28 37 41l36 32 11 10 8 5c23 16 37 23 64 29 7 2 14 4 21 4 25 0 50-10 70-24l14-11 13-10 23-23 6-8 8-7c10-11 34-42 41-56 9-18 13-27 17-47l2-15c1-47-26-80-58-112-13-13-26-25-40-36l-26-21-19-10c-19-10-49-19-71-17zm17 135l-5 25c16 0 48-5 46 20l-7 36-3 13c-2 2-5 2-7 2h-15l4-24 4-17c0-3 1-6-1-9-2-4-10-4-14-4-3 0-7 0-9 2s-2 7-3 10l-5 27c-3 13-1 15-9 15h-7l-7-1c-2-2-2-5-1-7l3-16 10-53 4-19h22zm-103 95l-4 24h-23l4-22 15-73 45 1c6 0 11 1 16 4 19 15 9 49-9 60-13 8-30 6-44 6zm163 0l-4 24h-22l3-16 10-57 3-15c1-2 1-5 3-6l7-1 38 1c6 1 11 1 16 5 18 14 7 49-10 59-12 8-30 6-44 6zm-153-54l-6 37c9 0 21 1 29-6 7-5 12-22 3-28-5-4-19-3-26-3zm163 0l-7 37c9 0 21 1 28-5 7-5 13-22 6-28-6-5-20-4-27-4z"/>
</svg>
