<svg viewBox="0 0 2447.6 2452.5" xmlns="http://www.w3.org/2000/svg">
  <g clip-rule="evenodd" fill-rule="evenodd">
    <path d="M897 0a245 245 0 001 490h244V245c0-135-109-245-245-245m0 654H245a245 245 0 000 491h652a245 245 0 000-491z" fill="#36c5f0"/>
    <path d="M2448 899a245 245 0 10-490 0v246h245c135-1 245-110 245-246zm-653 0V245a245 245 0 10-490 0v654a245 245 0 10490 0z" fill="#2eb67d"/>
    <path d="M1550 2453a245 245 0 000-491h-245v245c0 136 110 245 245 246zm0-655h653a245 245 0 000-490h-653a245 245 0 000 490z" fill="#ecb22e"/>
    <path d="M0 1553a245 245 0 10490 0v-245H245A245 245 0 000 1553zm653 0v654a245 245 0 10489 0v-654a245 245 0 10-489 0" fill="#e01e5a"/>
  </g>
</svg>
