
<svg xmlns="http://www.w3.org/2000/svg"
     width="16.6667in" height="16.6667in"
     viewBox="0 0 1200 1200">
  <path id="Seleção"
        fill="none" stroke="white" stroke-width="20"
        d="M 891.00,905.00
           C 883.73,906.73 868.58,915.96 861.00,919.75
             861.00,919.75 801.00,947.55 801.00,947.55
             755.79,965.64 713.64,977.27 666.00,986.80
             640.41,991.92 615.00,995.31 589.00,997.09
             589.00,997.09 579.00,998.00 579.00,998.00
             579.00,998.00 558.00,999.00 558.00,999.00
             558.00,999.00 523.00,999.00 523.00,999.00
             523.00,999.00 508.00,998.00 508.00,998.00
             508.00,998.00 467.00,994.13 467.00,994.13
             398.04,984.55 334.66,959.18 281.00,914.25
             212.75,857.10 175.73,773.98 164.28,687.00
             161.14,663.15 159.96,639.04 160.00,615.00
             160.00,615.00 160.96,603.00 160.96,603.00
             160.96,603.00 160.96,592.00 160.96,592.00
             160.96,592.00 161.91,582.00 161.91,582.00
             163.69,555.99 166.88,530.62 172.00,505.00
             193.40,397.98 244.79,299.28 328.00,227.29
             380.63,181.75 444.79,151.43 512.00,134.63
             538.04,128.12 578.42,121.31 605.00,121.00
             605.00,121.00 620.00,120.00 620.00,120.00
             620.00,120.00 660.00,120.00 660.00,120.00
             660.00,120.00 673.00,120.96 673.00,120.96
             713.34,122.72 753.89,130.12 792.00,143.69
             833.29,158.40 874.89,182.17 907.00,212.09
             961.60,262.95 993.16,329.02 1005.41,402.00
             1005.41,402.00 1010.00,437.00 1010.00,437.00
             1010.00,437.00 1010.00,445.00 1010.00,445.00
             1010.00,445.00 1011.00,455.00 1011.00,455.00
             1011.00,455.00 1011.00,489.00 1011.00,489.00
             1011.00,489.00 1010.00,508.00 1010.00,508.00
             1010.00,508.00 1009.09,518.00 1009.09,518.00
             1009.09,518.00 1005.27,553.00 1005.27,553.00
             1001.12,581.77 994.04,611.70 984.05,639.00
             972.61,670.28 958.70,699.10 937.39,725.00
             916.38,750.53 882.64,776.59 848.00,776.85
             848.00,776.85 832.00,776.85 832.00,776.85
             818.88,774.81 807.13,766.79 800.98,755.00
             793.35,740.35 794.81,721.17 795.00,705.00
             795.00,705.00 795.91,695.00 795.91,695.00
             795.91,695.00 799.73,661.00 799.73,661.00
             804.29,629.38 811.21,598.12 818.35,567.00
             818.35,567.00 861.42,379.00 861.42,379.00
             861.42,379.00 875.13,319.00 875.13,319.00
             877.30,310.07 882.82,289.08 883.00,281.00
             883.00,281.00 800.00,281.00 800.00,281.00
             797.96,281.00 794.24,280.76 792.58,282.02
             790.99,283.24 790.57,286.14 790.12,288.00
             790.12,288.00 786.37,303.00 786.37,303.00
             786.37,303.00 773.63,355.00 773.63,355.00
             772.08,361.21 772.07,370.61 766.00,374.00
             763.29,364.49 753.98,350.38 748.33,342.00
             721.36,301.99 678.03,278.53 631.00,271.27
             612.32,268.39 593.83,268.97 575.00,269.00
             557.33,269.03 532.02,274.17 515.00,279.28
             487.99,287.39 463.94,299.94 441.00,316.29
             371.31,365.96 331.04,438.33 310.63,520.00
             305.05,542.30 301.51,565.10 299.91,588.00
             299.91,588.00 298.96,598.00 298.96,598.00
             298.96,598.00 298.96,608.00 298.96,608.00
             298.96,608.00 298.00,618.00 298.00,618.00
             298.00,618.00 298.00,630.00 298.00,630.00
             298.00,630.00 299.00,649.00 299.00,649.00
             299.11,658.25 301.87,677.53 303.58,687.00
             313.09,739.75 335.29,788.35 381.00,819.26
             394.24,828.20 407.88,834.65 423.00,839.67
             436.55,844.17 459.81,848.83 474.00,849.00
             496.49,849.26 513.63,849.61 536.00,845.39
             585.63,836.03 629.76,808.67 663.91,772.00
             674.73,760.39 686.65,743.45 695.31,730.00
             699.21,723.95 706.43,710.03 711.00,706.00
             711.00,706.00 710.00,729.00 710.00,729.00
             709.96,755.47 708.75,780.50 723.69,804.00
             742.90,834.20 782.23,848.95 817.00,849.00
             835.04,849.03 848.94,849.60 867.00,846.57
             905.20,840.15 941.77,822.00 971.00,796.71
             1036.17,740.32 1069.45,654.20 1083.41,571.00
             1086.92,550.11 1089.12,529.12 1090.04,508.00
             1090.04,508.00 1091.00,495.00 1091.00,495.00
             1091.00,495.00 1091.00,450.00 1091.00,450.00
             1091.00,450.00 1090.00,438.00 1090.00,438.00
             1090.00,438.00 1090.00,430.00 1090.00,430.00
             1090.00,430.00 1085.27,391.00 1085.27,391.00
             1072.08,301.45 1032.80,216.48 965.00,155.17
             924.00,118.09 874.90,91.16 823.00,72.69
             786.15,59.58 746.79,52.71 708.00,48.83
             708.00,48.83 691.00,47.00 691.00,47.00
             691.00,47.00 682.00,47.00 682.00,47.00
             682.00,47.00 670.00,46.00 670.00,46.00
             670.00,46.00 611.00,46.00 611.00,46.00
             611.00,46.00 598.00,46.96 598.00,46.96
             567.09,48.31 536.24,52.90 506.00,59.58
             419.66,78.64 337.01,118.31 270.00,176.29
             270.00,176.29 252.00,192.91 252.00,192.91
             252.00,192.91 243.00,201.01 243.00,201.01
             243.00,201.01 232.96,212.00 232.96,212.00
             162.36,285.81 116.11,377.81 93.35,477.00
             85.76,510.09 81.22,543.19 78.91,577.00
             78.91,577.00 77.96,587.00 77.96,587.00
             77.96,587.00 77.96,599.00 77.96,599.00
             77.96,599.00 77.00,611.00 77.00,611.00
             77.00,611.00 77.00,635.00 77.00,635.00
             77.00,635.00 77.96,647.00 77.96,647.00
             77.96,647.00 77.96,658.00 77.96,658.00
             77.96,658.00 78.91,668.00 78.91,668.00
             78.91,668.00 82.73,705.00 82.73,705.00
             88.66,746.12 99.10,786.73 115.43,825.00
             133.32,866.94 157.90,905.55 188.91,939.00
             188.91,939.00 202.00,952.96 202.00,952.96
             272.80,1020.68 366.12,1059.80 463.00,1070.16
             463.00,1070.16 498.00,1073.09 498.00,1073.09
             498.00,1073.09 508.00,1074.00 508.00,1074.00
             508.00,1074.00 571.00,1074.00 571.00,1074.00
             571.00,1074.00 586.00,1073.00 586.00,1073.00
             611.54,1072.70 639.73,1068.46 665.00,1064.25
             720.85,1054.94 777.77,1039.34 830.00,1017.42
             853.37,1007.62 877.97,996.52 900.00,984.00
             900.00,984.00 916.00,975.00 916.00,975.00
             917.68,974.01 920.66,972.55 921.32,970.61
             922.39,967.47 915.90,956.31 914.25,953.00
             914.25,953.00 902.75,929.00 902.75,929.00
             902.75,929.00 891.00,905.00 891.00,905.00 Z
           M 592.00,343.15
           C 592.00,343.15 599.00,343.15 599.00,343.15
             599.00,343.15 608.00,343.91 608.00,343.91
             608.00,343.91 634.00,346.80 634.00,346.80
             667.30,353.33 697.71,371.47 716.64,400.00
             729.30,419.07 735.51,441.40 737.09,464.00
             737.09,464.00 737.99,473.00 737.99,473.00
             737.99,473.00 737.09,485.00 737.09,485.00
             735.67,505.69 731.89,525.76 727.42,546.00
             713.79,607.75 684.97,667.03 640.00,712.00
             617.01,734.99 587.48,755.90 556.00,765.28
             534.32,771.74 520.22,772.26 498.00,772.00
             491.04,771.91 478.76,769.65 472.00,767.70
             415.07,751.34 398.26,692.76 395.96,640.00
             395.96,640.00 395.00,629.00 395.00,629.00
             395.00,629.00 395.00,620.00 395.00,620.00
             395.00,620.00 396.00,600.00 396.00,600.00
             396.14,588.11 398.94,569.99 400.92,558.00
             407.13,520.52 418.56,483.45 436.69,450.00
             455.99,414.40 482.90,381.88 519.00,362.31
             534.64,353.83 551.44,348.26 569.00,345.44
             569.00,345.44 592.00,343.15 592.00,343.15 Z" />
</svg>
